/* XPM */
static xpm_row_t const down_xpm[] = {
/* columns rows colors chars-per-pixel */
"49 66 108 2 ",
"   c None",
".  c #061B20",
"X  c #071B20",
"o  c #0C1C20",
"O  c #0D1C20",
"+  c #151E21",
"@  c #161F21",
"#  c #181F21",
"$  c #191F21",
"%  c #1B2021",
"&  c #1C2021",
"*  c #1F2121",
"=  c #222222",
"-  c #262322",
";  c #2B2422",
":  c #312522",
">  c #322622",
",  c #322623",
"<  c #372723",
"1  c #3B2823",
"2  c #3D2923",
"3  c #3E2923",
"4  c #422A23",
"5  c #442B23",
"6  c #472C24",
"7  c #492C24",
"8  c #4A2D24",
"9  c #593025",
"0  c #6A3426",
"q  c #6B3526",
"w  c #703626",
"e  c #743726",
"r  c #7A3826",
"t  c #803927",
"y  c #833B27",
"u  c #8A3C27",
"i  c #9A4128",
"p  c #A84429",
"a  c #CD4D2B",
"s  c #CE4E2B",
"d  c #D9512C",
"f  c #DC512C",
"g  c #E2522C",
"h  c #E3522C",
"j  c #E2532C",
"k  c #E7552D",
"l  c #E8532C",
"z  c #EA552D",
"x  c #EB562D",
"c  c #ED542D",
"v  c #EF562D",
"b  c #FF5525",
"n  c #FF5626",
"m  c #F1572D",
"M  c #FF5729",
"N  c #FF572B",
"B  c #FF572C",
"V  c #F4582D",
"C  c #F7582D",
"Z  c #FF582B",
"A  c #FB582D",
"S  c #FC582D",
"D  c #FD582D",
"F  c #FE582C",
"G  c #FF582C",
"H  c #FF592C",
"J  c #FE582D",
"K  c #FF582D",
"L  c #FF592D",
"P  c #FF5A2C",
"I  c #FF5B2C",
"U  c #FF5A2D",
"Y  c #FC592E",
"T  c #FD592E",
"R  c #FE582E",
"E  c #FF582E",
"W  c #FE592E",
"Q  c #FF592E",
"!  c #FF592F",
"~  c #FE5A2E",
"^  c #FF5A2E",
"/  c #FE5B2E",
"(  c #FF5B2E",
")  c #FF5A2F",
"_  c #FF5B2F",
"`  c #FF5D2C",
"'  c #FF5C2E",
"]  c #FF5C2F",
"[  c #FF5D2F",
"{  c #FF5E2E",
"}  c #FF5A30",
"|  c #FF5B30",
" . c #FF5B31",
".. c #FF5C30",
"X. c #FF5D30",
"o. c #FF5C31",
"O. c #FF5D31",
"+. c #FF5E30",
"@. c #FF5E31",
"#. c #FF5D32",
"$. c #FF5C33",
"%. c #FF5D33",
"&. c #FF5E32",
"*. c #FF5F32",
"=. c #FF5E33",
"-. c #FF5F33",
";. c #FF5E34",
":. c #FF5F34",
/* pixels */
"                      ) ) ) ) B B ) ) ) B ) ) B ) ) ) B ) B ) ) ) B ) B B )                       ",
"                    Z ) ) N ) ) ) ) B ) B ) ) B ) B ) ) ) B ) B ) ) ) B ) B )                     ",
"                    ) B B ) B ) ) B ) B ) ) ) ) B ) B ) ) ) B ) B B ) ) N ) N                     ",
"                    ) ) ) ) B ) ) B ) ) ) B B ) ) ) B ) B ) ) ) ) ) ) B ) ) |                     ",
"                    b B N ) ) B ) B ) ) ) B B ) ) B ) ) B ) ) B ) B B ) B B -.                    ",
"                    b ) B ) ) ) ) B ) B ) ) ) ) ) ) B ) B ) ) B ) ) ) ) ) B -.                    ",
"                    ) ) B ) B ) ) ) B ) B ) ) B B B ) ) ) ) ) ) B ) ) B ) B |                     ",
"                    ) B ) ) B ) B ) ) ) B ) ) B ) ) ) B ) B B ) B ) ) ) B ) Z                     ",
"                    B ) B B ) ) ) B ) ) ) B ) ) ) B B ) B ) ) ) ) ) ) B ) B )                     ",
"                  [ N ) ) ) ) B ) B ) B ) ) B ) ) ) ) ) ) ) B B ) B ) ) N ) N )                   ",
"                  ) Z B ) ) ) B ) ) B ) B B ) ) B ) ) B ) B ) ) B ) B ) B ) ) )                   ",
"                  ) ) ) B B ) ) B ) ) ) ) ) ) B B ) ) B ) ) B ) ) ) B ) ) N ) B                   ",
"                | B ) B ) ) ) B ) ) B B B ) ) ) ) ) ) B ) B ) ) ) B ) ) B ) ) B )                 ",
"              [ ) ) B B ) B ) ) B ) ) ) ) ) B B ) B ) ) ) B ) B ) ) B ) B ) B ) N -.              ",
"            [ N ) N ) ) B ) B ) B ) ) ) ) B ) ) B ) B ) ) ) B ) B B ) ) ) ) ) B ) N `             ",
"          -.N ) N ) B ) ) ) B ) ) ) B B ) ) B ) ) ) B ) B ) ) ) ) ) ) B ) B B ) B ) Z -.          ",
"        ;.N ) N ) N ) ) ) B ) ) B ) ) B ) ) ) B B ) ) ) B ) ) B B ) ) ) ) ) ) Z ) N ) B -.        ",
"      [ ) ) ) B ) B ) B ) ) B ) B ) ) B ) B ) ) ) ) B ) B ) ) B ) ) B B B B ) ) ) ) ) B B -.      ",
"      ) ) ) B ) ) ) B ) B B ) ) ) ) ) ) B ) B ) ) B ) B ) ) ) ) ) B ) ) ) ) ) B B ) B ) ) N -.    ",
"    ) B B B ) ) B ) ) ) ) ) ) B ) B B ) ) ) B ) ) B ) ) ) B B ) ) ) B ) ) B ) B B ) ) ) ) B )     ",
"  -.B B B ) B ) ) ) B B B ) ) ) ) B B ) ) ) B ) ) B ) ) ) B B ) B B ) ) B ) ) ) ) ) ) B N ) B )   ",
"  ) ) ) ) ) B ) B ) ) ) ) ) B B ) ) ) ) B ) B ) ) B ) B ) ) ) ) ) ) ) B ) ) B ) ) B ) ) ) ) B )   ",
"  ) ) N ) B ) ) B ) ) ) ) B ) ) B ) ) B ) B ) ) ) ) B ) B ) ) B ) ) ) B ) B ) B B ) B ) B B ) ) -.",
") B ) B ) ) ) B ) ) B B ) ) B ) B ) ) B ) ) ) B B ) ) ) B ) ) B B B ) ) ) B ) ) ) ) B ) ) ) B B ) ",
"N B ) ) ) ) B B ) ) ) B ) B ) ) ) ) ) B ) B ) ) ) ) B ) B ) ) ) ) ) B ) ) ) B ) ) B ) ) ) B ) B -.",
"-.N ) B B ) ) ) ) B ) ) ) B ) B ) B ) ) ) B ) B B ) B ) ) ) B ) ) B ) ) B ) B ) ) B ) B ) ) B ) N ",
"| B ) B B ) ) ) B ) B ) ) ) B ) B ) B ) ) ) B ) ) B ) ) ) B ) B ) ) B B ) B ) ) ) ) B ) B B ) B ) ",
"| B ) ) ) ) B B ) ) B ) B ) ) ) ) ) B ) B ) ) ) ) ) ) B ) B ) ) B ) ) ) ) ) ) B B ) ) ) ) ) B ) B ",
"N B B ) ) B ) ) ) B ) ) B ) ) B ) B ) ) B ) ) B B ) ) B ) ) B ) ) ) ) B B B ) ) ) ) B B ) ) ) N ) ",
") ) ) ) ) ) B ) ) ) B ) B ) ) B ) ) B ) B ) ) B B ) ) B ) B ) ) B B ) ) ) ) ) B B ) ) ) B B ) ) | ",
"-.N ) B B B ) ) B B ) ) ) ) ) ) B B ) ) ) ) ) ) ) ) ) ) ) ) B B ) ) B ) ) ) ) B B ) ) ) ) ) Z B N ",
"  ) ) N ) ) ) B ) ) ) B ) B B ) ) ) ) B ) B B ) ) B B ) B ) ) ) ) B ) ) B B ) ) ) ) B B ) N ) ) ;.",
"  ) B B ) B B ) ) ) ) B ) B B ) ) ) ) B ) B B ) ) B B ) B ) ) ) ) B ) ) B B ) ) ) B ) ) ) B ) B   ",
"  ) ) ) ) ) ) ) B B ) ) ) ) ) ) B B ) ) ) ) ) ) ) ) ) ) ) ) B B ) ) B ) ) ) ) B ) B ) B B ) N )   ",
"  -.B ) B ) ) B ) ) B ) B ) ) B ) ) B ) B ) ) B B ) ) B ) B ) ) B B ) ) ) ) ) B ) ) B ) ) ) N )   ",
"    B ) N ) ) B ) B ) ) B ) ) B ) B ) ) B ) ) B B ) ) B ) ) B ) ) ) ) B B B ) ) B ) ) ) ) B B [   ",
"    ) B N ) ) ) ) ) B ) B ) ) ) ) ) B ) B ) ) ) ) ) ) B ) B ) ) B ) ) ) ) ) ) B ) ) B B B ) )     ",
"    ) ) ) ) B ) B ) B ) ) ) B ) B ) B ) ) ) B ) ) B ) ) ) B ) B ) ) B B ) B ) ) B ) ) ) ) N )     ",
"    -.N ) N ) ) ) B ) ) ) B ) B ) B ) ) ) B ) B B ) B ) ) ) B ) ) B ) ) B ) B ) B ) ) ) ) N -.    ",
"      ) B ) B B ) ) ) B ) B ) ) ) ) ) B ) B ) ) ) ) B ) B ) ) ) ) ) B ) ) ) B ) ) ) B B ) B       ",
"      -.N ) B ) ) ) B ) N ) Z ) B ) ) ) B B ) ) ) ) B B ) ) ) B B ) ) B ) N A B ) ) B ) B )       ",
"        ) B ) B B ) A B A A ) ) B ) B ) ) ) ) B B ) ) ) ) B ) B ) B ) B A Z ) ) B ) N ) )         ",
"        -.B ) N ) N ) ) ) ) A Z B ) ) ) ) ) ) B B ) ) ) ) ) B ) B ) A ) [ ) ) Z ) B ) B )         ",
"          ) N ) ) Z l 4 r v ) A ) B ) B B B ) ) ) ) B B B ) ) A ) B ) V u 6 g ) A ) B B           ",
"          ;.) ) B ) z - o 1 f [ A B B ) ) ) ) B B ) ) ) ) ) B ) A ) l 7 o * g Z B ) B -.          ",
"            ) N ) A ) y @ * : j ) A ) ) ) B ) ) ) ) B ) B B ) A ) z 3 @ @ e [ A ) B )             ",
"              ) Z A ) V 3 $ $ 7 A ) A B B ) B ) ) B ) B ) ) Z ) ) 9 @ * : z ) ) A B               ",
"                N ) N ) d ; & + i ) A ) ) ) B ) ) B ) ) ) B A ) p @ * = s ) A Z B -.              ",
"                -.N ) A ) d 3 X < B ) B ) ) ) B ) ) ) B B B A ) 4 X : a ) A ) ) -.                ",
"                  ) N ) A ) v y q A ) B B ) ) B ) B ) ) ) N ) ) q q z ) A ) N Z                   ",
"                    ) ) ) Z Z ) ) ) B ) ) ) ) ) B ) B ) ) ) B ) ) ` ) A ) Z )                     ",
"                      ) N ) A A A B ) B ) B B ) ) ) B ) B ) ) A Z A N ) B )                       ",
"                        ) ) N ) B ) ) ) B ) ) ) ) B ) ) B ) ) B ) N N A Z -.                      ",
"                        ) N ) B B ) ) B ) ) B B ) ) B ) B ) ) B ) ) ) ) )                         ",
"                          ) B B B ) ) ) ) B ) ) B B ) ) ) ) ) ) ) B B B                           ",
"                          ) B ) ) ) B B ) ) B ) ) ) ) B ) B B ) ) ) B )                           ",
"                          -.B ) ) ) B B ) ) B ) B ) ) ) ) ) ) B B ) ) )                           ",
"                            B B B ) ) ) ) B ) ) ) ) B B B B ) ) N ) N -.                          ",
"                            | B ) B B ) ) ) B B ) B ) ) ) ) B ) ) ) )                             ",
"                              ) ) N ) ) B ) ) ) ) ) B ) ) B ) B B B -.                            ",
"                              ) N ) B ) ) B B ) B B ) ) ) ) N ) B )                               ",
"                                ) ) ) B ) ) ) ) ) ) ) B ) B ) N )                                 ",
"                                  | N ) B B ) B B ) ) B ) N ) )                                   ",
"                                    ) ) B ) ) ) B ) B ) ) N )                                     ",
"                                        ) Z ) N ) B ) B ) -.                                      ",
"                                            ) -.B ) ) -.                                          "
};
