/* XPM */
static xpm_row_t const left_xpm []= {
/* columns rows colors chars-per-pixel */
"66 49 118 2 ",
"   c None",
".  c #01141A",
"X  c #04151A",
"o  c #05151A",
"O  c #0D181B",
"+  c #0E191B",
"@  c #11191B",
"#  c #12191B",
"$  c #141A1B",
"%  c #151A1B",
"&  c #191B1B",
"*  c gray11",
"=  c #211E1C",
"-  c #271F1C",
";  c #2D201C",
":  c #2E211C",
">  c #2E211E",
",  c #34221E",
"<  c #38231E",
"1  c #3A241E",
"2  c #3C241E",
"3  c #40251E",
"4  c #42271E",
"5  c #45281F",
"6  c #47281F",
"7  c #49291F",
"8  c #582C20",
"9  c #6A3121",
"0  c #6B3221",
"q  c #713321",
"w  c #753421",
"e  c #7B3521",
"r  c #813622",
"t  c #843822",
"y  c #8B3922",
"u  c #9B3F23",
"i  c #A94224",
"p  c #FF531F",
"a  c #CE4C27",
"s  c #CF4D27",
"d  c #DA5028",
"f  c #DD5028",
"g  c #E35128",
"h  c #E35228",
"j  c #E45128",
"k  c #E95228",
"l  c #EE5329",
"z  c #E85429",
"x  c #EB5429",
"c  c #EC5529",
"v  c #EF5529",
"b  c #FF5521",
"n  c #FF5624",
"m  c #FF5726",
"M  c #FF5627",
"N  c #FF5727",
"B  c #FF5827",
"V  c #FF5D27",
"C  c #F15629",
"Z  c #F45729",
"A  c #F75729",
"S  c #FB5729",
"D  c #FC5729",
"F  c #FD5729",
"G  c #FF5628",
"H  c #FE5728",
"J  c #FF5728",
"K  c #FE5729",
"L  c #FF5729",
"P  c #FE572A",
"I  c #FF572A",
"U  c #FF5828",
"Y  c #FF5928",
"T  c #FF5829",
"R  c #FE5929",
"E  c #FF5929",
"W  c #FF5A28",
"Q  c #FF5B28",
"!  c #FF5A29",
"~  c #FC592A",
"^  c #FD592A",
"/  c #FE582A",
"(  c #FF582A",
")  c #FE592A",
"_  c #FF592A",
"`  c #FF592B",
"'  c #FE5A2A",
"]  c #FF5A2A",
"[  c #FE5B2A",
"{  c #FF5B2A",
"}  c #FF5A2B",
"|  c #FF5B2B",
" . c #FF5E29",
".. c #FF5C2A",
"X. c #FF5C2B",
"o. c #FF5D2B",
"O. c #FF592D",
"+. c #FF5A2C",
"@. c #FF5B2C",
"#. c #FF5B2D",
"$. c #FF5C2C",
"%. c #FF5D2C",
"&. c #FF5C2D",
"*. c #FF5D2D",
"=. c #FF5E2D",
"-. c #FF5D2E",
";. c #FF5D2F",
":. c #FF5E2E",
">. c #FF5E2F",
",. c #FF5F2F",
"<. c #FF5C30",
"1. c #FF5D30",
"2. c #FF5E30",
"3. c #FF5F30",
"4. c #FF5E31",
"5. c #FF5F31",
"6. c #FF5E32",
"7. c #FF6030",
/* pixels */
"                                                                      $.$.M $.+.<.M _                                               ",
"                                                              $._ _ K M _ _ K K K K _ K _ $.                                        ",
"                                                      7._ _ K K _ _ K _ _ _ _ _ _ _ _ K _ K _                                       ",
"                                                  X._ K K K _ _ _ _ K K _ _ _ _ _ _ _ K _ _ K M $.                                  ",
"                                              X._ K K _ _ B K _ _ _ _ _ _ _ _ _ _ _ _ _ _ K _ _ _ 5.                                ",
"                                          5._ K K _ _ K _ _ _ _ _ _ _ _ _ _ _ _ _ _ _ _ _ _ _ _ _ K 7.                              ",
"                                        _ _ K _ _ K _ _ _ _ _ _ _ _ _ _ _ _ _ _ _ _ _ _ _ _ _ K _ _ M X.                            ",
"                                      _ K _ _ K _ _ _ _ _ _ _ _ _ _ _ _ _ _ _ _ _ _ _ _ _ _ _ _ K _ _ M X.                          ",
"                                  $._ K _ S K _ K _ _ _ _ _ _ _ _ _ _ _ _ _ _ _ _ _ _ _ _ _ _ _ _ _ _ _ _ +.                        ",
"                                V M _ K S _ _ K _ _ _ _ _ _ _ _ _ _ _ _ _ _ _ _ _ _ _ _ _ _ _ _ _ _ _ K _ K _ _ X.                  ",
"                              +._ _ _ _ X.l k _ K K _ _ _ _ _ _ _ _ _ _ _ _ _ _ _ _ _ _ _ _ _ _ _ _ _ _ K _ K K _ M _ _ p b X._ B   ",
"                            _ K B S X.Z t = 4 _ K K _ _ _ _ _ _ _ _ _ _ _ _ _ _ _ _ _ _ _ _ _ _ _ _ _ _ _ K _ _ _ _ _ K _ _ K _ _ _ ",
"                        _ K K _ _ _ d < O X e X.S K _ _ _ _ _ _ _ _ _ _ _ _ _ _ _ _ _ _ _ _ _ _ _ _ _ _ _ _ _ _ K K _ _ K K _ _ _ K ",
"                  $._ _ _ _ _ K _ d ; O % < c _ K +._ _ _ _ _ _ _ _ _ _ _ _ _ _ _ _ _ _ _ _ _ _ _ _ _ _ _ _ _ _ _ _ _ _ _ _ _ _ K _ ",
"              _ K K K K _ K K _ C 2 % # ; f _ S _ _ _ _ _ _ _ _ _ _ _ _ _ _ _ _ _ _ _ _ _ _ _ _ _ _ _ _ _ _ _ _ _ _ _ _ _ _ _ _ _ _ ",
"          _ _ K _ _ _ K K _ S _ r . O 7 h X.S _ K _ _ _ _ _ _ _ _ _ _ _ _ _ _ _ _ _ _ _ _ _ _ _ _ _ _ _ _ _ _ _ _ _ _ _ _ _ _ _ _ _ ",
"        _ M _ _ K _ _ _ _ K K _ 0 , u S _ S _ _ _ _ _ _ _ _ _ _ _ _ _ _ _ _ _ _ _ _ _ _ _ _ _ _ _ _ _ _ _ _ _ _ _ _ _ _ _ _ _ _ _ _ ",
"      +._ _ _ _ _ _ _ _ _ _ K _ K K X._ _ _ K _ _ _ _ _ _ _ _ _ _ _ _ _ _ _ _ _ _ _ _ _ _ _ _ _ _ _ _ _ _ _ _ _ _ _ _ _ _ _ _ _ _ _ ",
"    $.M _ K _ _ _ _ _ _ _ _ _ K _ _ S S _ K _ _ _ _ _ _ _ _ _ _ _ _ _ _ _ _ _ _ _ _ _ _ _ _ _ _ _ _ _ _ _ _ _ _ _ _ _ _ _ _ _ _ _ _ ",
"    _ _ K _ _ _ _ _ _ _ _ _ K _ K K _ _ _ _ _ _ _ _ _ _ _ _ _ _ _ _ _ _ _ _ _ _ _ _ _ _ _ _ _ _ _ _ _ _ _ _ _ _ _ _ _ _ _ _ _ _ _ _ ",
"  _ K _ _ _ _ _ _ _ _ _ _ _ _ _ _ _ _ _ _ _ _ _ _ _ _ _ _ _ _ _ _ _ _ _ _ _ _ _ _ _ _ _ _ _ _ _ _ _ _ _ _ _ _ _ _ _ _ _ _ _ _ _ _ _ ",
"  M _ K _ _ _ _ _ _ _ _ _ _ _ _ _ _ _ _ _ _ _ _ _ _ _ _ _ _ _ _ _ _ _ _ _ _ _ _ _ _ _ _ _ _ _ _ _ _ _ _ _ _ _ _ _ _ _ _ _ _ _ _ _ _ ",
"$.K _ _ _ _ _ _ _ _ _ _ _ _ _ _ _ _ _ _ _ _ _ _ _ _ _ _ _ _ _ _ _ _ _ _ _ _ _ _ _ _ _ _ _ _ _ _ _ _ _ _ _ _ _ _ _ _ _ _ _ _ _ _ _ _ ",
"+.K _ _ _ _ _ _ _ _ _ _ _ _ _ _ _ _ _ _ _ _ _ _ _ _ _ _ _ _ _ _ _ _ _ _ _ _ _ _ _ _ _ _ _ _ _ _ _ _ _ _ _ _ _ _ _ _ _ _ _ _ _ _ _ _ ",
"_ _ K _ _ _ _ _ _ _ _ _ _ _ _ _ _ _ _ _ _ _ _ _ _ _ _ _ _ _ _ _ _ _ _ _ _ _ _ _ _ _ _ _ _ _ _ _ _ _ _ _ _ _ _ _ _ _ _ _ _ _ _ _ _ _ ",
"+.K _ _ _ _ _ _ _ _ _ _ _ _ _ _ _ _ _ _ _ _ _ _ _ _ _ _ _ _ _ _ _ _ _ _ _ _ _ _ _ _ _ _ _ _ _ _ _ _ _ _ _ _ _ _ _ _ _ _ _ _ _ _ _ _ ",
"+.K _ _ _ _ _ _ _ _ _ _ _ _ _ _ _ _ _ _ _ _ _ _ _ _ _ _ _ _ _ _ _ _ _ _ _ _ _ _ _ _ _ _ _ _ _ _ _ _ _ _ _ _ _ _ _ _ _ _ _ _ _ _ _ _ ",
"$.K _ K _ _ _ _ _ _ _ _ _ _ _ _ _ _ _ _ _ _ _ _ _ _ _ _ _ _ _ _ _ _ _ _ _ _ _ _ _ _ _ _ _ _ _ _ _ _ _ _ _ _ _ _ _ _ _ _ _ _ _ _ _ _ ",
"  _ K _ _ _ _ _ _ _ _ _ _ _ _ _ _ _ _ _ _ _ _ _ _ _ _ _ _ _ _ _ _ _ _ _ _ _ _ _ _ _ _ _ _ _ _ _ _ _ _ _ _ _ _ _ _ _ _ _ _ _ _ _ _ _ ",
"  5.M _ K _ _ _ _ _ _ _ _ _ _ _ K K _ _ _ _ _ _ _ _ _ _ _ _ _ _ _ _ _ _ _ _ _ _ _ _ _ _ _ _ _ _ _ _ _ _ _ _ _ _ _ _ _ _ _ _ _ _ _ _ ",
"    $._ _ K _ _ _ _ _ _ _ _ _ K _ K S K _ K _ _ _ _ _ _ _ _ _ _ _ _ _ _ _ _ _ _ _ _ _ _ _ _ _ _ _ _ _ _ _ _ _ _ _ _ _ _ _ _ _ _ _ _ ",
"      _ K _ K _ _ _ _ _ _ _ K _ _ _ X.K S _ K _ _ _ _ _ _ _ _ _ _ _ _ _ _ _ _ _ _ _ _ _ _ _ _ _ _ _ _ _ _ _ _ _ _ _ _ _ _ _ _ _ _ _ ",
"        _ _ _ _ K _ _ _ _ _ S X.0 4 i X._ _ _ K _ _ _ _ _ _ _ _ _ _ _ _ _ _ _ _ _ _ _ _ _ _ _ _ _ _ _ _ _ _ _ _ _ _ _ _ _ _ _ _ _ _ ",
"          _ M K _ _ K M _ M S X.q . O 8 x _ K _ K _ _ _ _ _ _ _ _ _ _ _ _ _ _ _ _ _ _ _ _ _ _ _ _ _ _ _ _ _ _ _ _ _ _ _ _ _ _ _ _ _ ",
"            7._ M K K _ _ K K _ x : & O < z _ _ _ _ _ _ _ _ _ _ _ _ _ _ _ _ _ _ _ _ _ _ _ _ _ _ _ _ _ _ _ _ _ _ _ _ _ _ _ _ _ _ _ _ ",
"                7._ _ K K _ _ K _ a & & # 6 Z _ K _ _ _ _ _ _ _ _ _ _ _ _ _ _ _ _ _ _ _ _ _ _ _ _ _ _ _ _ _ _ _ _ _ _ _ _ _ _ _ K _ ",
"                        X.K K _ S X.a ; + X y X.S K _ _ _ _ _ _ _ _ _ _ _ _ _ _ _ _ _ _ _ _ _ _ _ _ _ _ _ _ _ _ K _ K _ _ _ _ K _ K ",
"                          $.K K _ _ X.x w % 5 _ K K _ _ _ _ _ _ _ _ _ _ _ _ _ _ _ _ _ _ _ _ _ _ _ _ _ _ _ _ K _ _ K _ K K M K _ K X.",
"                              _ K _ _ _ X.j g _ K K _ _ _ _ _ _ _ _ _ _ _ _ _ _ _ _ _ _ _ _ _ _ _ _ _ _ K _ _ K K _ K +.$.5.+.M _   ",
"                                B B _ S S _ _ K _ _ _ _ _ _ _ _ _ _ _ _ _ _ _ _ _ _ _ _ _ _ _ _ _ _ _ K _ K K B +.                  ",
"                                  $._ _ _ K S _ K _ _ _ _ _ _ _ _ _ _ _ _ _ _ _ _ _ _ _ _ _ _ _ _ _ K _ _ $.                        ",
"                                    $._ K _ K K _ _ _ _ _ _ _ _ _ _ _ _ _ _ _ _ _ _ _ _ _ _ _ _ _ _ _ B X.                          ",
"                                        _ K K _ K _ _ _ _ _ _ _ _ _ _ _ _ _ _ _ _ _ _ _ _ _ _ K _ _ M V                             ",
"                                          $.K K _ _ K _ _ _ _ _ _ _ _ _ _ _ _ _ _ _ _ _ _ _ _ _ _ M 5.                              ",
"                                              +.K K _ _ _ K _ _ _ _ _ _ _ _ _ _ _ _ _ _ _ K _ _ _ 5.                                ",
"                                                  _ K K K _ _ _ _ M K _ _ _ _ _ _ _ _ K _ _ K M $.                                  ",
"                                                      $._ _ K K K _ _ _ _ _ K _ K _ _ _ K M _ 7.                                    ",
"                                                            $._ B K M K K K _ K _ K K M _ X.                                        ",
"                                                                    5._ $._ K _ _ $._ 7.                                            "
};
