/* XPM */
static xpm_row_t const right_xpm[] = {
/* columns rows colors chars-per-pixel */
"66 49 118 2 ",
"   c None",
".  c #01141A",
"X  c #04151A",
"o  c #05151A",
"O  c #0D181B",
"+  c #0E191B",
"@  c #11191B",
"#  c #12191B",
"$  c #141A1B",
"%  c #151A1B",
"&  c #191B1B",
"*  c gray11",
"=  c #211E1C",
"-  c #271F1C",
";  c #2D201C",
":  c #2E211C",
">  c #2E211E",
",  c #34221E",
"<  c #38231E",
"1  c #3A241E",
"2  c #3C241E",
"3  c #40251E",
"4  c #42271E",
"5  c #45281F",
"6  c #47281F",
"7  c #49291F",
"8  c #582C20",
"9  c #6A3121",
"0  c #6B3221",
"q  c #713321",
"w  c #753421",
"e  c #7B3521",
"r  c #813622",
"t  c #843822",
"y  c #8B3922",
"u  c #9B3F23",
"i  c #A94224",
"p  c #FF531F",
"a  c #CE4C27",
"s  c #CF4D27",
"d  c #DA5028",
"f  c #DD5028",
"g  c #E35128",
"h  c #E35228",
"j  c #E45128",
"k  c #E95228",
"l  c #EE5329",
"z  c #E85429",
"x  c #EB5429",
"c  c #EC5529",
"v  c #EF5529",
"b  c #FF5521",
"n  c #FF5624",
"m  c #FF5726",
"M  c #FF5627",
"N  c #FF5727",
"B  c #FF5827",
"V  c #FF5D27",
"C  c #F15629",
"Z  c #F45729",
"A  c #F75729",
"S  c #FB5729",
"D  c #FC5729",
"F  c #FD5729",
"G  c #FF5628",
"H  c #FE5728",
"J  c #FF5728",
"K  c #FE5729",
"L  c #FF5729",
"P  c #FE572A",
"I  c #FF572A",
"U  c #FF5828",
"Y  c #FF5928",
"T  c #FF5829",
"R  c #FE5929",
"E  c #FF5929",
"W  c #FF5A28",
"Q  c #FF5B28",
"!  c #FF5A29",
"~  c #FC592A",
"^  c #FD592A",
"/  c #FE582A",
"(  c #FF582A",
")  c #FE592A",
"_  c #FF592A",
"`  c #FF592B",
"'  c #FE5A2A",
"]  c #FF5A2A",
"[  c #FE5B2A",
"{  c #FF5B2A",
"}  c #FF5A2B",
"|  c #FF5B2B",
" . c #FF5E29",
".. c #FF5C2A",
"X. c #FF5C2B",
"o. c #FF5D2B",
"O. c #FF592D",
"+. c #FF5A2C",
"@. c #FF5B2C",
"#. c #FF5B2D",
"$. c #FF5C2C",
"%. c #FF5D2C",
"&. c #FF5C2D",
"*. c #FF5D2D",
"=. c #FF5E2D",
"-. c #FF5D2E",
";. c #FF5D2F",
":. c #FF5E2E",
">. c #FF5E2F",
",. c #FF5F2F",
"<. c #FF5C30",
"1. c #FF5D30",
"2. c #FF5E30",
"3. c #FF5F30",
"4. c #FF5E31",
"5. c #FF5F31",
"6. c #FF5E32",
"7. c #FF6030",
/* pixels */
"                                            3.@.@.J I J J 3.J 3.                                                                    ",
"                                        %._ J J J @.J @.J J J J J _ @.@.                                                            ",
"                                    3.@.J J J _ I J I J J @._ J @.J J J J @.3.                                                      ",
"                                  %.J J _ _ J @.@.@.J @.@.J @.J J J @.J _ J J J _                                                   ",
"                                3.J @.J J _ _ _ J @.J @.J @.J @.@.J @._ J @.J I J I @.                                              ",
"                              3.J _ J @._ _ _ _ @.J @.J @.J @.J J @.J J @.J @.J I J J I %.                                          ",
"                            V J _ _ J _ _ _ _ _ J @.J @.J @.J @.@.J J @.J @.J @.@.J @.J J _                                         ",
"                          %.N _ _ J @._ _ _ _ _ @.J @.J @.J @.J J @.@.J @.J @.J J @.J J _ J J %.                                    ",
"                        %.J @.J _ _ _ _ _ _ _ _ _ _ _ _ _ _ _ _ @.J @.J @.J @.J @.J I J _ _ S N %.                                  ",
"                  @._ J J J J @._ _ _ _ _ _ _ _ _ _ _ _ _ _ _ _ J @.J @.J @.J @.J @.J @._ _ _ _ J _                                 ",
"  _ N @.3.3.@.J _ J J _ @.J J @._ _ _ _ _ _ _ _ _ _ _ _ _ _ _ _ @.J @.J @.J @.J I J @.g j X._ J @.J J                               ",
"_ _ I J G J J @.J _ _ J I J @.J _ _ _ _ _ _ _ _ _ _ _ _ _ _ _ _ J @.J @.J @.J @.S J _ 4 % w z X.S I J _ %.                          ",
"_ _ J _ J @.J J J J @.J @.J @.J _ _ _ _ _ _ _ _ _ _ _ _ _ _ _ _ @.J @.J @.J @.J J S %.y X O > s @.S _ _ J @.                        ",
"_ J _ _ @.J @.J @.@.J @.J @.J @._ _ _ _ _ _ _ _ _ _ _ _ _ _ _ _ J @.J @.J @.J @.@.I J A 5 @ & * a _ S _ J J J _ @.3.                ",
"_ _ _ _ J @.J @.J @.@.J @.J @.J _ _ _ _ _ _ _ _ _ _ _ _ _ _ _ _ @.J @.J @.J @.J J I J _ z 1 O & : c _ _ J @._ I J J _ 3.            ",
"_ _ _ _ @.J @.J @.J J @.J @.J @._ _ _ _ _ _ _ _ _ _ _ _ _ _ _ _ J @.J @.J @.J @.@.S @.S _ c 8 O X 0 _ S J @.J J _ _ J J _           ",
"_ _ _ _ _ _ _ _ _ _ _ _ _ _ _ _ _ _ _ _ _ _ _ _ _ _ _ _ _ _ _ _ J @.J @.J @.J @.J @.J _ S @._ i 2 0 X._ S _ _ _ _ J J _ J @.        ",
"_ _ _ _ _ _ _ _ _ _ _ _ _ _ _ _ _ _ _ _ _ _ _ _ _ _ _ _ _ _ _ _ @.J @.J @.J @.J @.J @.J _ S J _ _ _ _ N _ _ _ _ J @.@.J I J _       ",
"_ _ _ _ _ _ _ _ _ _ _ _ _ _ _ _ _ _ _ _ _ _ _ _ _ _ _ _ _ _ _ _ J @.J @.J @.J @.J @._ _ J @.J S J _ J _ _ _ _ _ @.J @.J J J J @.    ",
"_ _ _ _ _ _ _ _ _ _ _ _ _ _ _ _ _ _ _ _ _ _ _ _ _ _ _ _ _ _ _ _ @.J @.J @.J @.J @.J _ _ _ _ @.J J S _ _ _ _ _ _ J @.J @.@.J @.J 3.  ",
"_ _ _ _ _ _ _ _ _ _ _ _ _ _ _ _ _ _ _ _ _ _ _ _ _ _ _ _ _ _ _ _ J @.J @.J @.J @.J @.J @.J @.J @._ _ _ _ _ _ _ _ J @.J @.@.J @.J _   ",
"_ _ _ _ _ _ _ _ _ _ _ _ _ _ _ _ _ _ _ _ _ _ _ _ _ _ _ _ _ _ _ _ @.J @.J @.J @.J @.J @.J @.J @.J _ _ _ _ _ _ _ _ @.J @.J J @.J J J %.",
"_ _ _ _ _ _ _ _ _ _ _ _ _ _ _ _ _ _ _ _ _ _ _ _ _ _ _ _ _ _ _ _ J @.J @.J @.J @.J @.J @.J @.J @._ _ _ _ _ _ _ _ J @.J @.J @.I @.J <.",
"_ _ _ _ _ _ _ _ _ _ _ _ _ _ _ _ _ _ _ _ _ _ _ _ _ _ _ _ _ _ _ _ @.J @.J @.J @.J @.J @.J @.J @.J _ _ _ _ _ _ _ _ @.J @.J @.J @.I J @.",
"_ _ _ _ _ _ _ _ _ _ _ _ _ _ _ _ _ _ _ _ _ _ _ _ _ _ _ _ _ _ _ _ J @.J @.J @.J @.J @.J @.J @.J @.J @.J @.J @.J @.J @.J @.J @.J J _ J ",
"_ _ _ _ _ _ _ _ _ _ _ _ _ _ _ _ _ _ _ _ _ _ _ _ _ _ _ _ _ _ _ _ @.J @.J @.J @.J @.J @.J @.J @.J @.J @.J @.J @.J @.J @.J @.J J @.J @.",
"_ _ _ _ _ _ _ _ _ _ _ _ _ _ _ _ _ _ _ _ _ _ _ _ _ _ _ _ _ _ _ _ J @.J @.J @.J @.J @.J @.J @.J @.J @.J @.J @.J @.J @.J @.J @.@.J J X.",
"_ _ _ _ _ _ _ _ _ _ _ _ _ _ _ _ _ _ _ _ _ _ _ _ _ _ _ _ _ _ _ _ @.J @.J @.J @.J @.J @.J @.J @.J @.J @.J @.J @.J @.J @.J @.@.J I _   ",
"_ _ _ _ _ _ _ _ _ _ _ _ _ _ _ _ _ _ _ _ _ _ _ _ _ _ _ _ _ _ _ _ J @.J @.J @.J @.J @.J @._ _ _ _ J @.I @.J @.J @.J @.J @.J J @.J _   ",
"_ _ _ _ _ _ _ _ _ _ _ _ _ _ _ _ _ _ _ _ _ _ _ _ _ _ _ _ _ _ _ _ @.J @.J @.J @.J @.J @.J _ _ S @.J J I J @.J @.J @.J @.J @.J I J     ",
"_ _ _ _ _ _ _ _ _ _ _ _ _ _ _ _ _ _ _ _ _ _ _ _ _ _ _ _ _ _ _ _ J @.J @.J @.J @.J @.J @.J @.J S J @.J @.J @.J @.J @.I @.J @.J @.    ",
"_ _ _ _ _ _ _ _ _ _ _ _ _ _ _ _ _ _ _ _ _ _ _ _ _ _ _ _ _ _ _ _ @.J @.J @.J @.J @.J @.J _ S _ @.J S I J @.J @.J @.J @.J I J @.      ",
"J @.J @.J @.J @.J @.J @.J @.J @.J @.J @.J @.J @.J @.J @.J @.J @.J @.J @.J @.J @._ _ J _ S _ S u < 0 X._ I I @.@.J J @.@.J _         ",
"@.J @.J @.J @.J @.J @.J @.J @.J @.J @.J @.J @.J @.J @.J @.J @.J @.J @.J @.J @.J _ J @.S _ h 7 O X e X.S I J J I _ _ J J @.          ",
"J @.J @.J @.J @.J @.J @.J @.J @.J @.J @.J @.J @.J @.J @.J @.J @.J @.J @.J @.J @._ _ _ _ f > @ @ 1 C S _ J @.J _ J J @.              ",
"I J @.J @.J @.J @.J @.J @.J @.J @.J @.J @.J @.J @.J @.J @.J @.J @.J @.J @.J @.J _ S _ c < % @ ; d _ S _ J J _ _ @.                  ",
"J @.J @.J J _ @.J J @.J J @.J @.J @.J @.J @.J @.J @.J @.J @.J @.J @.J @.J @.J @.I S %.e X O 1 d X.N _ J J @.                        ",
"@.J J J _ _ J J I _ J _ J @.@.J @.J @.J @.J @.J @.J @.J @.J @.J @.J @.J @.J @.J S J _ 3 * t A _ S _ J _                             ",
"  _ @._ b b @.@.J J J I _ J _ _ J @.J @.J @.J @.J @.J @.J @.J @.J @.J @.J @.J @.J J _ k c X._ S _ J @.                              ",
"                  %._ @.J J J _ _ J @.J @.J @.J @.J @.J @.J @.J @.J @.J @.J @.J _ _ _ _ _ J J @.N V                                 ",
"                        @.I _ _ @.J _ _ _ _ _ _ J @.J @.J @.J @.J @.J @._ _ _ _ _ J @.J J I J J %.                                  ",
"                          %.N _ _ I _ _ _ _ _ _ @.J @.J @.J @.J @.J @.J _ _ _ _ _ _ J J @.J _                                       ",
"                            X._ _ _ J _ _ _ _ _ J @.J @.J @.J @.J @.J @._ _ _ @.J _ @.J J _                                         ",
"                              7.J _ _ _ _ _ _ _ @.J @.J @.J @.J @.J @.J _ _ J _ _ I J I 3.                                          ",
"                                3.J @.I J _ _ _ J @.J @.@.J J @.J @.@.J _ J _ J J _ %.                                              ",
"                                  %.J J _ _ J _ @.J @.J J @.J J _ J J _ I J J _ @.                                                  ",
"                                      @.I J J @.I @.@.I @.J @.J J J J J _ @.7.                                                      ",
"                                        3.J J J I J J J I J J J _ _ 3.                                                              ",
"                                              _ V <.I @.J %.3.                                                                      "
};
