/* XPM */
static xpm_row_t const up_xpm[] = {
/* columns rows colors chars-per-pixel */
"49 66 118 2 ",
"   c None",
".  c #01141A",
"X  c #04151A",
"o  c #05151A",
"O  c #0D181B",
"+  c #0E191B",
"@  c #11191B",
"#  c #12191B",
"$  c #141A1B",
"%  c #151A1B",
"&  c #191B1B",
"*  c gray11",
"=  c #211E1C",
"-  c #271F1C",
";  c #2D201C",
":  c #2E211C",
">  c #2E211E",
",  c #34221E",
"<  c #38231E",
"1  c #3A241E",
"2  c #3C241E",
"3  c #40251E",
"4  c #42271E",
"5  c #45281F",
"6  c #47281F",
"7  c #49291F",
"8  c #582C20",
"9  c #6A3121",
"0  c #6B3221",
"q  c #713321",
"w  c #753421",
"e  c #7B3521",
"r  c #813622",
"t  c #843822",
"y  c #8B3922",
"u  c #9B3F23",
"i  c #A94224",
"p  c #FF531F",
"a  c #CE4C27",
"s  c #CF4D27",
"d  c #DA5028",
"f  c #DD5028",
"g  c #E35128",
"h  c #E35228",
"j  c #E45128",
"k  c #E95228",
"l  c #EE5329",
"z  c #E85429",
"x  c #EB5429",
"c  c #EC5529",
"v  c #EF5529",
"b  c #FF5521",
"n  c #FF5624",
"m  c #FF5726",
"M  c #FF5627",
"N  c #FF5727",
"B  c #FF5827",
"V  c #FF5D27",
"C  c #F15629",
"Z  c #F45729",
"A  c #F75729",
"S  c #FB5729",
"D  c #FC5729",
"F  c #FD5729",
"G  c #FF5628",
"H  c #FE5728",
"J  c #FF5728",
"K  c #FE5729",
"L  c #FF5729",
"P  c #FE572A",
"I  c #FF572A",
"U  c #FF5828",
"Y  c #FF5928",
"T  c #FF5829",
"R  c #FE5929",
"E  c #FF5929",
"W  c #FF5A28",
"Q  c #FF5B28",
"!  c #FF5A29",
"~  c #FC592A",
"^  c #FD592A",
"/  c #FE582A",
"(  c #FF582A",
")  c #FE592A",
"_  c #FF592A",
"`  c #FF592B",
"'  c #FE5A2A",
"]  c #FF5A2A",
"[  c #FE5B2A",
"{  c #FF5B2A",
"}  c #FF5A2B",
"|  c #FF5B2B",
" . c #FF5E29",
".. c #FF5C2A",
"X. c #FF5C2B",
"o. c #FF5D2B",
"O. c #FF592D",
"+. c #FF5A2C",
"@. c #FF5B2C",
"#. c #FF5B2D",
"$. c #FF5C2C",
"%. c #FF5D2C",
"&. c #FF5C2D",
"*. c #FF5D2D",
"=. c #FF5E2D",
"-. c #FF5D2E",
";. c #FF5D2F",
":. c #FF5E2E",
">. c #FF5E2F",
",. c #FF5F2F",
"<. c #FF5C30",
"1. c #FF5D30",
"2. c #FF5E30",
"3. c #FF5F30",
"4. c #FF5E31",
"5. c #FF5F31",
"6. c #FF5E32",
"7. c #FF6030",
/* pixels */
"                                          ,.@.@.L @.@.                                            ",
"                                      3.E L L L @.L L L E                                         ",
"                                    @.L L L E E L E E L L L @.                                    ",
"                                  E L @.E L E @.@.E @.L @.E L @.                                  ",
"                                @.L L L @.E E L L E @.L E L L L E                                 ",
"                              E L L L E L L @.@.L @.E L L @.L @.L ,.                              ",
"                            ,.L E L E L E @.L E E E @.@.E E @.L E L                               ",
"                            E L E L @.@.E L @.E @.L L E @.L L E E L E                             ",
"                          3.L E L E @.@.L E @.L @.E E L E L L @.L E L                             ",
"                          @.L E L @.L E L @.E L L L @.@.@.@.E E E E L ,.                          ",
"                          E L L L E @.E E E @.@.E @.L E L E @.L E E L E                           ",
"                          L E L @.E L L @.L L E E L @.E L @.E L @.L L E                           ",
"                        E L E @.L E @.@.E L L @.@.@.L E L E @.@.L L L L E                         ",
"                      ,.E L L L L @.L E @.@.E E L E L @.@.L L E ` L L @.L                         ",
"                      L @.E L S S E @.~ L E @.L E L E @.E ` E L S S L E L E                       ",
"                    L S E S E E E L L E L @.E L @.@.E L L @.L L E @.S E @.L @.                    ",
"                  E E E S E x q 9 E E L E L E @.@.L E E @.L @.S 9 r Z E S E L E                   ",
"                @.L L S ,.a : . 3 E S L E @.E L E L @.L L L E L , . 1 d E S E L ,.                ",
"              ,.E E L E s * & + i ,.S E @.E @.L E @.L @.E E S E u + $ - d X.S @.L                 ",
"              L E S E x : & O 8 E E L L L L @.E L @.E E @.S L @.E 7 # $ 1 Z E L L E               ",
"            B L E S ,.w + # 1 x @.S @.E E E @.L E @.L L L @.@.S E g ; $ + t X.E E L E             ",
"          ,.L E L E g $ o 7 j E S L L L @.L @.E L @.E @.E L L E S ,.f , X = l E L E L 3.          ",
"          L L L S @.h 5 y A E S E L E @.L @.L E L E @.E @.L L L E S E Z e 3 j E L E L E           ",
"        @.L E L E L E @.E @.L @.L E L @.E E L @.@.E L L @.E @.E L E E S E @.E L @.L E L ,.        ",
"        L E L L L E L L S L E S @.@.L E L E @.@.L L E @.E @.L L E L @.L S S L E L L E ` L         ",
"      E L ` E @.@.L S L L L @.L L E L @.@.E L E E @.E L L @.E @.E @.S L L L ` E @.E L E L @.      ",
"      L L L E L L @.@.L E @.L @.E L E @.@.L E L @.E @.L L E @.E E E @.@.E L L @.@.L E E L E       ",
"    3.L E L @.@.E E L @.L @.E E @.@.E L E L @.@.L L @.E @.E L L @.L L E @.@.E L E L @.L E L 7.    ",
"    E L E E L E @.L E @.L E @.L L E @.L E @.L E E @.L E @.L E @.@.E E L L L E @.E @.L L E L @.    ",
"    L E L @.@.E @.E L @.L @.E L L @.E L E L @.E E L @.E @.E L @.L L @.@.E @.E L L @.E @.E L E     ",
"  ,.L E E @.L L L L E E E E @.@.E E @.@.@.@.L L @.@.L L L L E E E @.L E @.E @.L L E @.E L E L     ",
"  E L L E E E @.E @.@.L @.L L E @.L L E L E E @.L E E @.E @.@.L E L @.E L L @.E @.E L E @.L L ,.  ",
"  E L E @.E E L @.E E L E L L @.@.E E L E L L @.E L L @.L @.@.E @.L E @.L L E @.@.L E E @.L L E   ",
"  L E L L L @.@.L L @.@.@.@.E E L L @.@.@.@.E E @.@.E E E E L L @.E L @.E @.E L E L @.L E E L L   ",
"3.L L L E @.L E E @.L E L E @.L E @.L E L E @.L L E @.L @.L E @.L L E E @.E @.L E @.L @.@.L L L   ",
"L L L @.E L @.E E L @.E L @.E L E L @.E L @.E L L @.E L @.E L @.E @.@.L L L @.E L @.E E L L @.L 3.",
",.L E E E @.L L @.@.L E L E @.@.@.@.L E L E @.@.E E @.L @.L E E L @.@.E E E @.L E @.L L E L L L X.",
"E L @.E L @.E @.L E L @.@.E L E L E L @.@.E L E @.L @.E E L @.L E E L L @.L @.E L @.E @.E @.L L B ",
"L L L L L E @.E E L E @.@.L E L E L E @.@.L E L L @.L E E @.L @.@.L E @.L @.L E L E @.E @.L @.L ,.",
"E L @.E @.E L L @.@.E L E L @.@.@.@.E L E L @.@.E E L @.L @.E E @.E L @.E E L @.@.E L L @.E E L ` ",
"L @.L E @.@.L E E @.L L E @.L E L E @.L E E @.L L E @.@.L E @.L L L E @.E @.L L E E @.L L E @.L <.",
"@.L E @.L E L @.L @.E @.E L @.E L @.E L @.L @.E @.E L E L @.E L E @.E L L @.E @.@.L @.E @.E L L M ",
"@.L L E E L E @.L E @.E @.@.L L E E @.@.L @.L E @.L E L E E @.@.@.E @.L L E @.E L @.L E @.E E L E ",
"3.L L L @.@.E L @.E L L L E E @.@.L L E E E L @.E L @.@.@.L L E L L @.E @.E L L E E L @.E L L L   ",
"  E L E L @.L E L E @.@.@.E E L E L L @.@.@.L E @.L E E E L L @.E @.L E @.L E @.@.L E @.L E L E   ",
"  @.L E L E L @.@.E L E L L @.@.@.@.E E L E L @.E L @.L @.@.E E E L @.E @.E L @.@.E L @.L E L 3.  ",
"    E L L @.E @.@.L E L E @.L E L E @.L E L E @.E @.L @.L E @.L @.@.L L L L E E L L E E E L L     ",
"    3.L E E L L E L @.@.E L @.E L @.E L @.@.E L L @.E E L @.E L L E E @.E @.@.L E @.` L @.L       ",
"      ,.L E E @.L E E @.L L E @.E @.L L E @.L E @.@.L E L E @.@.E L L @.L @.@.E E L E E L ,.      ",
"        3.L E E @.E L @.E @.E L L @.E @.E L @.E L E L @.@.E L E @.@.E E E E L E @.E E L 3.        ",
"          3.M E L E E E @.E @.L L E @.E @.@.L L E L E @.@.L E L L E @.L @.L @.L E E B 3.          ",
"            V M L L @.L L L @.E @.E L L L E E @.@.@.E L E L @.@.L @.E L @.E E L E L X.            ",
"              ,.L L L @.E E @.L L E @.@.@.E E L L E @.L E @.L E E E @.L @.L L ` L @.              ",
"                @.L L E @.L @.E @.E L E L L @.@.L @.E L E L @.E @.L @.E E L E L @.                ",
"                  L L L L @.L E @.L E L E @.L E E E @.@.@.@.L L L @.L E L E E E                   ",
"                  E L @.E E L @.E L @.@.E L @.E @.L L E L E E @.E E L @.@.E L E                   ",
"                  ,.L E L E E E L E @.@.L E @.L @.E E L E L L @.@.L E @.L L L ,.                  ",
"                    E L E E L @.@.E L E L @.E L L L @.@.@.@.E E @.E L @.L L L                     ",
"                    M L L L E @.@.L E L E E @.@.E @.L E L E @.L L L E E E L E                     ",
"                    ,.L E @.E L E L @.@.@.L L E E L @.E L @.E L E @.@.L E L @.                    ",
"                    <.L @.@.L E @.L E E E L L @.@.@.L E L E @.@.@.E E L L @.b                     ",
"                    <.L L E L @.E L @.L @.@.E E L E L @.@.E L E L L @.@.L E b                     ",
"                    E L E L E @.E @.L @.L E @.L E L E @.@.L E L E @.E E E L E                     ",
"                    M @.L @.E L L @.E E L @.E L @.@.E L E L @.@.E L @.E E L @.                    ",
"                    E L E L @.E E E @.L @.L E E @.L @.L E E @.L @.L E L E L E                     ",
"                      X.L E E E @.L @.E E L @.L @.E E L @.L @.E E L @.L L @.                      "
};
